<svg width="95" height="81" viewBox="0 0 95 81" fill="none" xmlns="http://www.w3.org/2000/svg">
<rect width="95" height="81" rx="12.5" fill="#F9B234"/>
<path d="M66.2859 58.8983C66.0435 58.9458 65.7224 59.0073 65.3302 59.0793C64.3527 59.2587 62.9356 59.5029 61.1964 59.758C57.7109 60.2694 52.9653 60.8198 47.8884 60.9878C42.7921 61.1564 37.4793 60.9351 32.8146 59.9585C28.1305 58.9779 24.388 57.2983 22.0393 54.7464C19.7983 52.3114 19.3636 49.6261 20.3284 46.5657C21.3275 43.3964 23.8166 39.9296 27.3014 36.3567C33.3987 30.1053 42.0022 24.0603 49.0232 19.3246C48.3672 22.8735 48.9547 27.1996 52.9821 31.5756C55.477 34.2865 58.1633 36.8153 60.6322 39.1396C61.0984 39.5784 61.5568 40.01 62.0048 40.4342C64.8841 43.1605 67.2911 45.5447 68.8937 47.7815C70.4848 50.0023 71.0709 51.7895 70.7857 53.3917C70.5134 54.9213 69.3618 56.7512 66.2859 58.8983Z" fill="#F9B234" stroke="white" stroke-width="5.00804"/>
</svg>
