<svg width="138" height="147" viewBox="0 0 138 147" fill="none" xmlns="http://www.w3.org/2000/svg">
<circle cx="66.5" cy="85.5" r="61.5" fill="#B3D4EC"/>
<circle cx="66.5" cy="24.5" r="24.5" fill="white"/>
<circle cx="66.5" cy="24.5" r="20.9487" fill="white" stroke="#ADADAD" stroke-width="1.10256" stroke-dasharray="4.92 4.92"/>
<path d="M64.9798 28.8636V28.7358C64.9941 27.3793 65.1361 26.2997 65.406 25.4972C65.6759 24.6946 66.0594 24.0447 66.5566 23.5476C67.0537 23.0504 67.6503 22.5923 68.3463 22.1733C68.7654 21.9176 69.1418 21.6158 69.4756 21.2678C69.8094 20.9126 70.0722 20.5043 70.2639 20.0426C70.4628 19.581 70.5622 19.0696 70.5622 18.5085C70.5622 17.8125 70.3989 17.2088 70.0722 16.6974C69.7455 16.1861 69.3087 15.7919 68.7618 15.5149C68.2149 15.2379 67.6077 15.0994 66.9401 15.0994C66.3577 15.0994 65.7966 15.2202 65.2568 15.4616C64.7171 15.7031 64.2661 16.0831 63.9039 16.6016C63.5416 17.12 63.3321 17.7983 63.2753 18.6364H60.5906C60.6475 17.429 60.96 16.3956 61.5281 15.5362C62.1034 14.6768 62.8598 14.0199 63.7973 13.5653C64.7419 13.1108 65.7895 12.8835 66.9401 12.8835C68.1901 12.8835 69.2767 13.1321 70.2 13.6293C71.1304 14.1264 71.8477 14.8082 72.352 15.6747C72.8634 16.5412 73.1191 17.5284 73.1191 18.6364C73.1191 19.4176 72.9983 20.1243 72.7568 20.7564C72.5225 21.3885 72.1816 21.9531 71.7341 22.4503C71.2938 22.9474 70.7611 23.3878 70.1361 23.7713C69.5111 24.1619 69.0104 24.5739 68.634 25.0071C68.2575 25.4332 67.9841 25.9411 67.8137 26.5305C67.6432 27.12 67.5509 27.8551 67.5367 28.7358V28.8636H64.9798ZM66.3435 35.1705C65.8179 35.1705 65.3669 34.9822 64.9905 34.6058C64.6141 34.2294 64.4259 33.7784 64.4259 33.2528C64.4259 32.7273 64.6141 32.2763 64.9905 31.8999C65.3669 31.5234 65.8179 31.3352 66.3435 31.3352C66.8691 31.3352 67.32 31.5234 67.6965 31.8999C68.0729 32.2763 68.2611 32.7273 68.2611 33.2528C68.2611 33.6009 68.1723 33.9205 67.9948 34.2116C67.8243 34.5028 67.5935 34.7372 67.3023 34.9148C67.0182 35.0852 66.6986 35.1705 66.3435 35.1705Z" fill="#ADADAD"/>
<path d="M0 76C0 73.2386 2.23858 71 5 71H133C135.761 71 138 73.2386 138 76V105C138 107.761 135.761 110 133 110H5C2.23858 110 0 107.761 0 105V76Z" fill="#357CA4"/>
<rect x="5" y="75" width="48" height="8" rx="4" fill="#58ECF5"/>
<rect x="5" y="87" width="89" height="8" rx="4" fill="white"/>
<rect x="5" y="99" width="105" height="8" rx="4" fill="white"/>
</svg>
